<svg xmlns="http://www.w3.org/2000/svg" viewBox="0 0 24 24" role="img" aria-label="MetaMask">
  <title>MetaMask</title>
  <path d="M21.3 2.5l-7.1 5.2 1.32-3.1z" fill="#E2761B"/>
  <path d="M2.7 2.5l7.04 5.25-1.26-3.15z" fill="#E4761B"/>
  <path d="M18.4 16.2l-1.9 2.9 4.06 1.12 1.17-3.95z" fill="#E4761B"/>
  <path d="M2.28 16.27l1.16 3.95 4.06-1.12-1.9-2.9z" fill="#E4761B"/>
  <path d="M7.27 10.4l-1.13 1.71 4.02.18-.14-4.33z" fill="#E4761B"/>
  <path d="M16.73 10.4l-2.8-2.5-.09 4.39 4.02-.18z" fill="#E4761B"/>
  <path d="M7.5 19.1l2.43-1.18-2.1-1.64z" fill="#E4761B"/>
  <path d="M14.07 17.92l2.43 1.18-.33-2.82z" fill="#E4761B"/>
  <path d="M16.5 19.1l-2.43-1.18.2 1.58-.02.66z" fill="#D7C1B3"/>
  <path d="M7.5 19.1l2.25 1.06-.02-.66.19-1.58z" fill="#D7C1B3"/>
  <path d="M9.79 15.22l-2.02-.6 1.43-.65z" fill="#233447"/>
  <path d="M14.21 15.22l.59-1.25 1.44.65z" fill="#233447"/>
  <path d="M7.5 19.1l.35-2.9-2.24.06z" fill="#CD6116"/>
  <path d="M16.15 16.2l.35 2.9 1.89-2.84z" fill="#CD6116"/>
  <path d="M18.59 12.11l-4.02.18.37 2.93.59-1.25 1.44.65z" fill="#CD6116"/>
  <path d="M7.77 14.62l1.43-.65.59 1.25.38-2.93-4.02-.18z" fill="#CD6116"/>
  <path d="M6.14 12.11l1.69 3.29-.06-1.64z" fill="#E4751F"/>
  <path d="M16.24 13.76l-.07 1.64 1.69-3.29z" fill="#E4751F"/>
  <path d="M10.16 12.29l-.38 2.93.47 2.45.11-3.23z" fill="#E4751F"/>
  <path d="M13.84 12.29l-.2 2.14.1 3.24.48-2.45z" fill="#E4751F"/>
  <path d="M14.21 15.22l-.48 2.45.35.24 2.1-1.64.07-1.64z" fill="#F6851B"/>
  <path d="M7.77 14.62l.06 1.64 2.1 1.64.35-.24-.47-2.45z" fill="#F6851B"/>
  <path d="M14.25 20.16l.02-.66-.18-.16h-4.18l-.17.16.02.66-2.25-1.06.79.64 1.59 1.1h4.27l1.6-1.1.78-.64z" fill="#C0AD9E"/>
  <path d="M14.07 17.92l-.35-.24h-3.44l-.35.24-.19 1.58.17-.16h4.18l.18.16z" fill="#161616"/>
  <path d="M21.6 8.04l.6-2.9-.9-2.64-6.83 5.04 2.63 2.21 3.71 1.08.82-.95-.36-.26.57-.52-.44-.34.57-.43z" fill="#763D16"/>
  <path d="M1.8 5.14l.6 2.9-.38.28.57.43-.44.34.57.52-.36.26.82.95 3.71-1.08 2.63-2.21L2.7 2.5z" fill="#763D16"/>
  <path d="M20.93 11.65l-3.71-1.08 1.13 1.71-1.69 3.29 2.23-.03h3.33z" fill="#F6851B"/>
  <path d="M6.78 10.57l-3.71 1.08-1.23 3.89h3.32l2.23.03-1.69-3.29z" fill="#F6851B"/>
  <path d="M13.84 12.29l.24-4.1 1.08-2.92H8.85l1.06 2.92.25 4.1.09 1.3.01 3.22h3.44l.02-3.22z" fill="#F6851B"/>
</svg>
